<?xml version="1.0" encoding="UTF-8"?>
<svg width="600" height="400" viewBox="0 0 600 400" fill="none" xmlns="http://www.w3.org/2000/svg">
    <!-- 3D Background Elements with Gradient -->
    <defs>
        <linearGradient id="bg-gradient" x1="0%" y1="0%" x2="100%" y2="100%">
            <stop offset="0%" style="stop-color:#7289DA;stop-opacity:0.2"/>
            <stop offset="100%" style="stop-color:#7289DA;stop-opacity:0.05"/>
        </linearGradient>
    </defs>
    
    <!-- 3D Layered Circles -->
    <circle cx="300" cy="200" r="150" fill="url(#bg-gradient)" transform="skewX(-10)"/>
    <circle cx="300" cy="200" r="100" fill="rgba(114, 137, 218, 0.15)" transform="skewX(-10) translate(10, -10)"/>
    
    <!-- 3D Discord-style Chat Bubbles -->
    <g transform="translate(200,150) skewX(-15) skewY(5)">
        <!-- 3D Chat Window with Shadow -->
        <rect x="-5" y="5" width="200" height="120" rx="10" fill="#5269BA" filter="blur(2px)"/> <!-- Shadow -->
        <rect x="0" y="0" width="200" height="120" rx="10" fill="#7289DA"/>
        <rect x="10" y="10" width="180" height="100" rx="5" fill="#FFFFFF"/>
        
        <!-- 3D Chat Messages with Depth -->
        <rect x="20" y="20" width="120" height="10" rx="5" fill="#7289DA" opacity="0.6" transform="translate(0, -1)"/>
        <rect x="20" y="40" width="160" height="10" rx="5" fill="#7289DA" opacity="0.4" transform="translate(0, -1)"/>
        <rect x="20" y="60" width="140" height="10" rx="5" fill="#7289DA" opacity="0.6" transform="translate(0, -1)"/>
    </g>
    
    <!-- 3D Decorative Elements with Shadows -->
    <ellipse cx="150" cy="100" rx="20" ry="15" fill="#7289DA" opacity="0.3" transform="skewX(-15)"/>
    <ellipse cx="450" cy="300" rx="30" ry="25" fill="#7289DA" opacity="0.3" transform="skewX(-15)"/>
    <ellipse cx="500" cy="150" rx="15" ry="12" fill="#7289DA" opacity="0.3" transform="skewX(-15)"/>
    <ellipse cx="100" cy="250" rx="25" ry="20" fill="#7289DA" opacity="0.3" transform="skewX(-15)"/>
    
    <!-- 3D Abstract Lines with Depth -->
    <path d="M50,200 Q150,100 250,200 T450,200" stroke="#7289DA" stroke-width="3" fill="none" opacity="0.3" transform="translate(5,5) skewX(-10)"/>
    <path d="M50,200 Q150,100 250,200 T450,200" stroke="#7289DA" stroke-width="2" fill="none" opacity="0.5"/>
    
    <path d="M100,300 Q200,200 300,300 T500,300" stroke="#7289DA" stroke-width="3" fill="none" opacity="0.3" transform="translate(5,5) skewX(-10)"/>
    <path d="M100,300 Q200,200 300,300 T500,300" stroke="#7289DA" stroke-width="2" fill="none" opacity="0.5"/>
</svg>